<?xml version="1.0" encoding="iso-8859-1"?>
<!-- Generator: Adobe Illustrator 19.0.0, SVG Export Plug-In . SVG Version: 6.00 Build 0)  -->
<svg width="120px" version="1.1" id="Layer_1" xmlns="http://www.w3.org/2000/svg" xmlns:xlink="http://www.w3.org/1999/xlink" x="0px" y="0px"
     viewBox="0 0 512 512" style="enable-background:new 0 0 512 512;" xml:space="preserve">
<g transform="translate(1 1)">
	<g>
		<g>
			<path fill="#ACACAC" d="M103.96,216.6c3.413,2.56,7.68,4.267,11.947,4.267c1.707,0,3.413,0,4.267,0l226.133-47.787
				c8.533-1.707,15.36-9.387,15.36-18.773V74.093c0-5.973-2.56-11.093-6.827-14.507c-4.267-4.267-10.24-5.12-16.213-4.267
				l-226.133,46.933c-8.533,1.707-15.36,9.387-15.36,18.773v80.213C97.133,207.213,99.693,213.187,103.96,216.6z M114.2,121.027
				c0-0.853,0.853-1.707,1.707-1.707L342.04,72.387c0.853,0,1.707,0,1.707,0s0.853,0.853,0.853,1.707v81.067
				c0,0.853-0.853,1.707-1.707,1.707L116.76,203.8c-0.853,0-1.707-0.853-1.707-0.853s-0.853-0.853-0.853-1.707V121.027z"/>
            <path fill="#ACACAC" d="M395.8,50.2V24.6c0-11.947-8.533-25.6-22.187-25.6L82.627,58.733C71.533,61.293,63,71.533,63,82.627V459.8v8.533
				C63,492.227,81.773,511,105.667,511H447v-76.8v-17.067V50.2H395.8z M86.04,75.8l288.427-59.733
				c1.707,0.853,4.267,4.267,3.413,8.533v346.453c0,2.56-1.707,5.12-4.267,5.12l-268.8,40.96c-4.7,0-9.186,0.856-13.351,2.353
				c-4.137,1.42-7.972,3.441-11.396,5.977V82.627C80.067,79.213,82.627,76.653,86.04,75.8z M429.933,493.933H105.667
				c-14.507,0-25.6-11.093-25.6-25.6V459.8c0-14.507,11.093-25.6,25.6-25.6h324.267V493.933z M219.16,417.133l157.867-23.893
				c11.093-1.707,18.773-11.093,18.773-22.187V67.267h34.133v349.867H219.16z"/>
		</g>
	</g>
</g>
    <g>
</g>
    <g>
</g>
    <g>
</g>
    <g>
</g>
    <g>
</g>
    <g>
</g>
    <g>
</g>
    <g>
</g>
    <g>
</g>
    <g>
</g>
    <g>
</g>
    <g>
</g>
    <g>
</g>
    <g>
</g>
    <g>
</g>
</svg>
